# Blender v3.2.0 OBJ File: 'untitled.blend'
# www.blender.org
mtllib test.mtl
o Cube
v 0.505650 0.902096 0.157045
v 1.065454 -0.978209 -1.131194
v 0.814702 1.094003 1.290740
v 1.101214 -0.974952 0.791925
v -1.050525 0.591672 -0.382283
v -1.000000 -1.000000 -1.000000
v -0.789133 0.751876 0.828424
v -1.000000 -1.000000 1.000000
vt 0.625000 0.500000
vt 0.875000 0.500000
vt 0.875000 0.750000
vt 0.625000 0.750000
vt 0.375000 0.750000
vt 0.625000 1.000000
vt 0.375000 1.000000
vt 0.375000 0.000000
vt 0.625000 0.000000
vt 0.625000 0.250000
vt 0.375000 0.250000
vt 0.125000 0.500000
vt 0.375000 0.500000
vt 0.125000 0.750000
vt 0.000000 0.000000
vt 0.000000 0.000000
vt 0.000000 0.000000
vt 0.000000 0.000000
vn -0.1687 0.9799 -0.1061
vn -0.0597 -0.0864 0.9945
vn -0.9962 0.0372 0.0792
vn 0.0113 -0.9999 0.0007
vn 0.0535 0.4877 -0.8714
vn 0.8329 -0.1407 -0.5352
vn 0.6553 0.6612 -0.3651
vn 0.7814 0.5410 0.3111
vn 0.9342 -0.2246 0.2771
usemtl Material
s off
f 1/1/1 5/2/1 7/3/1 3/4/1
f 4/5/2 3/4/2 7/6/2 8/7/2
f 8/8/3 7/9/3 5/10/3 6/11/3
f 6/12/4 2/13/4 4/5/4 8/14/4
f 6/11/5 5/10/5 1/1/5 2/13/5
s 1
f 2/13/6 1/1/7 3/4/8 4/5/9
f 4/15/9 2/16/6 1/17/7
f 3/18/8 4/15/9 1/17/7
